<mxfile host="app.diagrams.net" modified="2023-06-22T12:43:20.408Z" agent="Mozilla/5.0 (Windows NT 10.0; Win64; x64) AppleWebKit/537.36 (KHTML, like Gecko) Chrome/113.0.0.0 Safari/537.36 OPR/99.0.0.0" etag="_W6nk8rIgv0CntEEYanN" version="21.5.0" type="github">
  <diagram name="Page-1" id="cM5O_6jnb5_f2eblkuw2">
    <mxGraphModel dx="1393" dy="758" grid="1" gridSize="10" guides="1" tooltips="1" connect="1" arrows="1" fold="1" page="1" pageScale="1" pageWidth="850" pageHeight="1100" math="0" shadow="0">
      <root>
        <mxCell id="0" />
        <mxCell id="1" parent="0" />
        <mxCell id="JgwaSkcQTteCl20cYl-I-3" value="" style="rounded=1;whiteSpace=wrap;html=1;" vertex="1" parent="1">
          <mxGeometry x="10" y="100" width="860" height="600" as="geometry" />
        </mxCell>
        <mxCell id="JgwaSkcQTteCl20cYl-I-1" value="" style="ellipse;whiteSpace=wrap;html=1;aspect=fixed;" vertex="1" parent="1">
          <mxGeometry x="20" y="195" width="410" height="410" as="geometry" />
        </mxCell>
        <mxCell id="JgwaSkcQTteCl20cYl-I-2" value="" style="ellipse;whiteSpace=wrap;html=1;aspect=fixed;" vertex="1" parent="1">
          <mxGeometry x="450" y="170" width="410" height="410" as="geometry" />
        </mxCell>
        <mxCell id="JgwaSkcQTteCl20cYl-I-6" value="" style="endArrow=classic;html=1;rounded=0;" edge="1" parent="1" target="JgwaSkcQTteCl20cYl-I-7">
          <mxGeometry width="50" height="50" relative="1" as="geometry">
            <mxPoint x="360" y="550" as="sourcePoint" />
            <mxPoint x="410" y="500" as="targetPoint" />
          </mxGeometry>
        </mxCell>
        <mxCell id="JgwaSkcQTteCl20cYl-I-7" value="" style="rounded=0;whiteSpace=wrap;html=1;" vertex="1" parent="1">
          <mxGeometry x="380" y="560" width="120" height="60" as="geometry" />
        </mxCell>
        <mxCell id="JgwaSkcQTteCl20cYl-I-10" value="&lt;font style=&quot;font-size: 18px;&quot;&gt;Provider&amp;nbsp;&lt;/font&gt;" style="text;html=1;strokeColor=none;fillColor=none;align=center;verticalAlign=middle;whiteSpace=wrap;rounded=0;" vertex="1" parent="1">
          <mxGeometry x="140" y="220" width="180" height="60" as="geometry" />
        </mxCell>
        <mxCell id="JgwaSkcQTteCl20cYl-I-11" value="" style="ellipse;whiteSpace=wrap;html=1;aspect=fixed;" vertex="1" parent="1">
          <mxGeometry x="70" y="280" width="300" height="300" as="geometry" />
        </mxCell>
        <mxCell id="JgwaSkcQTteCl20cYl-I-13" value="" style="ellipse;whiteSpace=wrap;html=1;aspect=fixed;" vertex="1" parent="1">
          <mxGeometry x="500" y="240" width="310" height="310" as="geometry" />
        </mxCell>
        <mxCell id="JgwaSkcQTteCl20cYl-I-14" value="&lt;font style=&quot;font-size: 18px;&quot;&gt;Consumer&lt;/font&gt;" style="text;html=1;strokeColor=none;fillColor=none;align=center;verticalAlign=middle;whiteSpace=wrap;rounded=0;" vertex="1" parent="1">
          <mxGeometry x="572.5" y="185" width="165" height="55" as="geometry" />
        </mxCell>
      </root>
    </mxGraphModel>
  </diagram>
</mxfile>
